<svg height="512pt" viewBox="-31 0 512 512" width="512pt" xmlns="http://www.w3.org/2000/svg"><path d="m330 151h-.679688c-7.433593-83.019531-77.273437-151-164.320312-151-87.152344 0-156.894531 68.078125-164.320312 151h-.679688v361h330v-271h45c24.8125 0 45-20.1875 45-45 0-9.894531 0-97.710938 0-107.578125 17.460938-6.195313 30-22.867187 30-42.421875 0-24.863281-20.097656-46-45-46-24.859375 0-45 21.097656-45 46 0 19.554688 12.539062 36.226562 30 42.421875v62.578125zm75-121c7.988281 0 15 7.476562 15 16 0 8.269531-6.730469 15-15 15s-15-6.730469-15-15c0-8.523438 7.011719-16 15-16zm-370.074219 151h115.074219v44.617188c-58.089844-2.976563-101.046875-22.96875-115.074219-44.617188zm145.074219-.011719h115.074219c-14.027344 21.648438-56.984375 41.652344-115.074219 44.628907zm115.074219-29.988281h-115.074219v-44.617188c58.089844 2.976563 101.046875 22.96875 115.074219 44.617188zm-145.074219 0h-115.074219c14.027344-21.648438 56.984375-41.640625 115.074219-44.617188zm-97.773438 81.449219c26.761719 13.378906 61.035157 21.457031 97.773438 23.191406v44.519531c-45.335938-5.03125-83.964844-32.605468-104.402344-71.226562 2.140625 1.203125 4.347656 2.375 6.628906 3.515625zm97.773438 97.863281c4.941406.445312 9.941406.6875 15 .6875s10.058594-.242188 15-.6875v30.6875h-30zm30-30.152344v-44.519531c36.738281-1.734375 71.015625-9.8125 97.773438-23.191406 2.28125-1.140625 4.488281-2.316407 6.628906-3.515625-20.4375 38.621094-59.066406 66.195312-104.402344 71.226562zm104.75-196.894531c-2.25-1.269531-4.570312-2.511719-6.976562-3.714844-26.757813-13.378906-61.035157-21.457031-97.773438-23.191406v-45.515625c45.59375 5.101562 84.40625 33.164062 104.75 72.421875zm-134.75-72.421875v45.515625c-36.738281 1.734375-71.015625 9.8125-97.773438 23.191406-2.40625 1.203125-4.726562 2.445313-6.976562 3.714844 20.34375-39.257813 59.15625-67.320313 104.75-72.421875zm0 436.15625c0-8.269531 6.730469-15 15-15s15 6.730469 15 15-6.730469 15-15 15-15-6.730469-15-15zm57.421875 15c1.664063-4.695312 2.578125-9.742188 2.578125-15 0-24.8125-20.1875-45-45-45s-45 20.1875-45 45c0 5.257812.914062 10.304688 2.578125 15h-92.578125v-221.242188c21.523438 30.574219 53.15625 53.546876 90 64.003907v66.238281h90v-30h60v-30h-60v-6.238281c36.84375-10.457031 68.476562-33.429688 90-64.003907v221.242188zm182.578125-286c0 8.269531-6.730469 15-15 15h-45v-30h60zm0 0"/></svg>